HIERARCHY
ROOT Hips
{
	OFFSET	0.000000	0.000000	0.000000
	CHANNELS 6 Xposition Yposition Zposition Zrotation Xrotation Yrotation
	JOINT LeftUpLeg
	{
		OFFSET	12.811937	-7.635976	0.557276
		CHANNELS 3 Zrotation Xrotation Yrotation
		JOINT LeftLeg
		{
			OFFSET	-0.429270	-42.206159	-1.204951
			CHANNELS 3 Zrotation Xrotation Yrotation
			JOINT LeftFoot
			{
				OFFSET	-2.112259	-42.464481	-3.973220
				CHANNELS 3 Zrotation Xrotation Yrotation
				JOINT LeftFootHeel
				{
					OFFSET	0.387196	-5.329707	-3.419729
					CHANNELS 3 Zrotation Xrotation Yrotation
					End Site
					{
						OFFSET	0.327567	-0.000003	16.505428
					}
				}
			}
		}
	}
	JOINT RightUpLeg
	{
		OFFSET	-12.811937	-7.635976	0.557276
		CHANNELS 3 Zrotation Xrotation Yrotation
		JOINT RightLeg
		{
			OFFSET	0.429270	-42.206159	-1.204951
			CHANNELS 3 Zrotation Xrotation Yrotation
			JOINT RightFoot
			{
				OFFSET	2.112259	-42.464481	-3.973220
				CHANNELS 3 Zrotation Xrotation Yrotation
				JOINT RightFootHeel
				{
					OFFSET	-0.387198	-5.329707	-3.419729
					CHANNELS 3 Zrotation Xrotation Yrotation
					End Site
					{
						OFFSET	-0.327566	-0.000003	16.505428
					}
				}
			}
		}
	}
	JOINT Spine
	{
		OFFSET	0.000000	13.731315	-1.007646
		CHANNELS 3 Zrotation Xrotation Yrotation
		JOINT Spine1
		{
			OFFSET	0.000000	12.091746	-0.604589
			CHANNELS 3 Zrotation Xrotation Yrotation
			JOINT LeftShoulder
			{
				OFFSET	5.746115	20.990027	-0.833816
				CHANNELS 3 Zrotation Xrotation Yrotation
				JOINT LeftArm
				{
					OFFSET	10.881538	-1.359258	0.219250
					CHANNELS 3 Zrotation Xrotation Yrotation
					JOINT LeftForeArm
					{
						OFFSET	4.390314	-31.537147	0.202818
						CHANNELS 3 Zrotation Xrotation Yrotation
						JOINT LeftHand
						{
							OFFSET	3.168650	-24.865023	5.373370
							CHANNELS 3 Zrotation Xrotation Yrotation
							End Site
							{
								OFFSET	1.457528	-10.806075	2.170267
							}
						}
					}
				}
			}
			JOINT RightShoulder
			{
				OFFSET	-5.746115	20.990027	-0.833816
				CHANNELS 3 Zrotation Xrotation Yrotation
				JOINT RightArm
				{
					OFFSET	-10.881538	-1.359258	0.219250
					CHANNELS 3 Zrotation Xrotation Yrotation
					JOINT RightForeArm
					{
						OFFSET	-4.390314	-31.537147	0.202818
						CHANNELS 3 Zrotation Xrotation Yrotation
						JOINT RightHand
						{
							OFFSET	-3.168650	-24.865023	5.373370
							CHANNELS 3 Zrotation Xrotation Yrotation
							End Site
							{
								OFFSET	-1.457528	-10.806075	2.170267
							}
						}
					}
				}
			}
			JOINT Neck
			{
				OFFSET	0.000000	27.075639	0.680489
				CHANNELS 3 Zrotation Xrotation Yrotation
				JOINT Head
				{
					OFFSET	0.000000	12.391287	1.239129
					CHANNELS 3 Zrotation Xrotation Yrotation
					End Site
					{
						OFFSET	0.000000	13.818691	-0.105853
					}
				}
			}
		}
	}
}
MOTION
Frames:    18
Frame Time: 0.016667
0.000000	100.372176	0.000000	0.738011	-3.361616	-1.011557	-2.471320	4.667010	-2.313886	1.848027	0.344088	5.396256	1.667014	0.231444	1.280861	0.	0.	0.	1.086031	4.846568	0.503857	0.229060	-2.658054	-2.548125	-2.387676	1.901903	-2.889288	0.	0.	0.	-0.000001	-0.000001	0.000000	0.233658	6.022073	-2.411044	0.965306	4.232152	2.689677	-0.619386	-5.491845	-2.912877	-2.264018	-0.081196	11.345551	13.459846	-2.389950	-24.269810	-0.446391	3.689501	0.537098	0.093475	-7.693725	0.923606	-1.337513	4.373846	-0.398870	-4.630981	0.145727	13.069424	1.152437	-0.251021	-1.160537	-2.118955	-7.191411	3.287089	
0.000000	100.372176	0.000000	0.738011	-3.361616	-1.011557	-2.471320	4.667010	-2.313886	1.848027	0.344088	5.396256	1.667014	0.231444	1.280861	0.	0.	0.	1.086031	4.846568	0.503857	0.229060	-2.658054	-2.548125	-2.387676	1.901903	-2.889288	0.	0.	0.	-0.000001	-0.000001	0.000000	0.274974	5.999215	-2.054413	0.950140	4.247355	2.327425	-0.619386	-5.491845	-2.912877	-2.264018	-0.081196	11.345551	13.459846	-2.389950	-24.269810	-0.464998	3.713611	0.175567	0.093475	-7.693725	0.923606	-1.337513	4.373846	-0.398870	-4.662902	-0.052388	13.974819	1.108951	-0.236908	-1.521846	-2.118955	-7.191411	3.287089	
-0.055034	100.379366	-0.059304	0.870053	-3.248707	-0.211155	-2.434760	4.317086	-2.446589	1.759155	0.468976	4.907905	1.663817	0.330579	1.087715	0.	0.	0.	1.038911	4.781067	0.344820	0.263487	-2.673629	-2.750542	-2.498757	1.844277	-3.296604	0.	0.	0.	-0.000001	-0.000002	0.000002	0.268273	5.858287	-2.491546	0.959938	4.313778	2.705884	-0.578205	-5.537398	-2.977688	-2.432497	-0.499976	11.155094	13.381271	-2.398811	-23.999691	-0.424652	3.740053	0.587402	-0.077143	-7.819695	1.113977	-1.309698	4.321865	-0.349612	-4.627744	0.008727	13.967010	1.070599	-0.099705	-1.213625	-2.127103	-7.162827	3.198472	
-0.067139	100.378455	-0.072697	0.897308	-3.222557	-0.025438	-2.425989	4.240854	-2.478160	1.741985	0.488712	4.802946	1.660901	0.361775	1.034307	0.	0.	0.	1.031204	4.766521	0.315258	0.271840	-2.676876	-2.797063	-2.526692	1.822464	-3.400531	0.	0.	0.	-0.000001	-0.000002	0.000000	0.290669	5.818386	-2.498314	0.945477	4.333085	2.706048	-0.567139	-5.547778	-3.009217	-2.470569	-0.598654	11.116361	13.372708	-2.409182	-23.957809	-0.433246	3.751383	0.594920	-0.120082	-7.854939	1.175201	-1.344289	4.209070	0.142861	-4.575475	0.101479	13.751953	1.064595	-0.037719	-1.072877	-2.159207	-7.178390	2.998440	
-0.105639	100.376120	-0.133070	0.972127	-3.147416	0.514171	-2.402436	4.031626	-2.592057	1.699325	0.532337	4.535001	1.650262	0.455849	0.864890	0.	0.	0.	1.020543	4.701641	0.244808	0.283593	-2.667376	-2.955656	-2.606497	1.763694	-3.694688	0.	0.	0.	0.000000	-0.000001	0.000001	0.362253	5.703024	-2.505688	0.891392	4.389216	2.697688	-0.524817	-5.578578	-3.135619	-2.580134	-0.852010	10.998672	13.360259	-2.473967	-23.870527	-0.463491	3.791008	0.616660	-0.242560	-7.969260	1.346799	-1.325111	4.177056	0.149324	-4.588995	-0.071395	14.587025	0.983057	0.043743	-1.302549	-2.094544	-7.163248	2.990604	
-0.135700	100.374376	-0.208188	1.012195	-3.128419	0.852441	-2.384167	3.936865	-2.683742	1.673489	0.551497	4.389339	1.645146	0.515547	0.758048	0.	0.	0.	1.032165	4.651235	0.205169	0.273911	-2.629970	-3.081672	-2.654551	1.732356	-3.857825	0.	0.	0.	-0.000001	-0.000001	0.000000	0.367690	5.666004	-2.503594	0.898668	4.415207	2.698886	-0.499123	-5.594981	-3.233950	-2.644902	-0.989162	10.916013	13.340202	-2.526110	-23.860903	-0.439980	3.814645	0.646610	-0.317801	-8.049351	1.448983	-1.346641	4.019845	0.755097	-4.628676	-0.026216	14.561485	1.011813	0.093373	-1.365625	-2.069068	-7.180041	2.857330	
-0.155623	100.376992	-0.283420	1.053142	-3.143223	1.179484	-2.384889	3.923737	-2.895449	1.659997	0.558155	4.323371	1.642977	0.545663	0.707782	0.	0.	0.	1.029707	4.648917	0.023427	0.268526	-2.612518	-3.147389	-2.677601	1.722567	-3.930744	0.	0.	0.	0.000000	0.000000	0.000001	0.344898	5.667986	-2.505264	0.933316	4.428795	2.542761	-0.468956	-5.606417	-3.169558	-2.702805	-1.106599	10.837765	13.314403	-2.566740	-23.892496	-0.396407	3.836588	0.687306	-0.385671	-8.133996	1.553813	-1.347721	3.959289	0.984773	-4.739301	-0.113432	14.883533	1.063421	0.136066	-1.440568	-2.043351	-7.188697	2.719938	
-0.175230	100.377166	-0.309478	1.072913	-3.158860	1.335989	-2.361332	3.867496	-2.835549	1.635315	0.565652	4.201317	1.639288	0.606617	0.608736	0.	0.	0.	1.034016	4.651083	0.007402	0.277884	-2.587429	-3.121440	-2.724890	1.712324	-4.080553	0.	0.	0.	-0.000002	-0.000001	0.000001	0.347792	5.675883	-2.505007	0.929309	4.442539	2.713660	-0.473303	-5.617543	-3.383925	-2.733406	-1.156390	10.800701	13.304296	-2.580744	-23.913250	-0.391168	3.847867	0.706797	-0.416032	-8.177820	1.611056	-1.327065	4.006510	0.748599	-4.830064	-0.263051	15.378901	1.071920	0.146414	-1.473974	-2.027972	-7.173944	2.627411	
-0.204178	100.379705	-0.369024	1.114670	-3.194682	1.634466	-2.354256	3.841510	-2.921313	1.614122	0.572906	4.080545	1.627905	0.662852	0.520165	0.	0.	0.	1.047822	4.653691	0.102387	0.251420	-2.530417	-3.337377	-2.766378	1.687897	-4.243483	0.	0.	0.	0.000000	-0.000002	0.000002	0.383586	5.692465	-2.498091	0.895302	4.460860	2.715850	-0.489217	-5.636245	-3.471515	-2.772285	-1.232709	10.738482	13.269715	-2.571266	-23.964024	-0.411229	3.872375	0.737338	-0.476251	-8.269796	1.734835	-1.336485	3.974043	0.964841	-4.971980	-0.368847	15.674740	1.048043	0.146641	-1.545480	-1.994237	-7.115314	2.419612	
-0.218176	100.383009	-0.403243	1.178153	-3.240695	2.053141	-2.357318	3.804190	-3.029626	1.591149	0.579087	3.898390	1.604692	0.741169	0.403273	0.	0.	0.	1.048527	4.669249	0.070071	0.211624	-2.413123	-3.460235	-2.795198	1.604237	-4.489207	0.	0.	0.	-0.000001	-0.000001	0.000000	0.396399	5.716638	-2.483437	0.881288	4.482974	2.715540	-0.527245	-5.669830	-3.567269	-2.842752	-1.293239	10.663693	13.131249	-2.563805	-24.051186	-0.413121	3.903726	0.778796	-0.552328	-8.412360	1.928795	-1.363555	3.964946	1.275842	-5.167458	-0.517987	16.053589	1.050448	0.166028	-1.693344	-1.957481	-7.064639	2.168929	
-0.235752	100.386274	-0.441904	1.220677	-3.261449	2.319218	-2.391758	3.789226	-3.098583	1.608373	0.569193	3.789845	1.586237	0.789046	0.325896	0.	0.	0.	1.046313	4.671961	0.045135	0.196750	-2.364595	-3.543260	-2.823335	1.575342	-4.635138	0.	0.	0.	-0.000001	-0.000001	-0.000001	0.370471	5.728457	-2.478478	0.901957	4.490569	2.713122	-0.548632	-5.690303	-3.602221	-2.903503	-1.312389	10.626227	12.997810	-2.515553	-24.083088	-0.384990	3.910877	0.811263	-0.597913	-8.493236	2.036106	-1.386936	3.975375	1.465539	-5.268631	-0.591721	16.264519	1.081334	0.173079	-1.795619	-1.920436	-7.022858	2.014185	
-0.244267	100.387776	-0.463037	1.239964	-3.268655	2.449939	-2.412419	3.780967	-3.134670	1.622957	0.574870	3.740218	1.574926	0.800298	0.287317	0.	0.	0.	1.046374	4.670793	0.026961	0.189278	-2.344493	-3.588497	-2.836637	1.564030	-4.696458	0.	0.	0.	-0.000001	-0.000001	0.000000	0.359518	5.731265	-2.479044	0.910823	4.491178	2.713540	-0.558098	-5.698938	-3.608518	-2.928913	-1.300809	10.619476	12.909791	-2.496721	-24.099016	-0.371499	3.912390	0.825345	-0.619911	-8.528076	2.080467	-1.396766	3.981315	1.546473	-5.310287	-0.615098	16.364805	1.093851	0.171830	-1.848604	-1.905681	-6.993546	1.917787	
-0.266708	100.390915	-0.519842	1.276108	-3.282974	2.705812	-2.451980	3.763123	-3.205026	1.653952	0.612822	3.642694	1.548306	0.797528	0.213181	0.	0.	0.	1.046805	4.670775	-0.021358	0.182660	-2.328822	-3.687349	-2.865414	1.562400	-4.795510	0.	0.	0.	-0.000002	-0.000001	-0.000001	0.352430	5.735053	-2.478771	0.910430	4.492976	2.705553	-0.570977	-5.716602	-3.599005	-2.961253	-1.233869	10.629409	12.686012	-2.474958	-24.112885	-0.368598	3.912231	0.844522	-0.652251	-8.582580	2.145701	-1.414537	3.990434	1.695149	-5.368179	-0.637395	16.532274	1.104138	0.171439	-1.971121	-1.916785	-6.950922	1.711886	
-0.291845	100.396535	-0.581975	1.326048	-3.243582	3.069792	-2.511153	3.673719	-3.296293	1.701365	0.670848	3.503602	1.507016	0.793627	0.097523	0.	0.	0.	1.038543	4.633494	-0.107053	0.177675	-2.333947	-3.840410	-2.882290	1.565375	-4.918932	0.	0.	0.	0.000000	-0.000002	0.000001	0.336220	5.680765	-2.478000	0.903958	4.494762	2.687402	-0.578977	-5.741093	-3.558132	-2.975802	-1.113152	10.717530	12.277099	-2.396638	-24.034540	-0.363116	3.906418	0.864781	-0.698369	-8.630399	2.196510	-1.438333	4.001171	1.861879	-5.387101	-0.616759	16.695515	1.119621	0.172895	-2.182778	-1.938660	-6.890502	1.424844	
-0.295293	100.398347	-0.589853	1.342942	-3.227373	3.183083	-2.531673	3.641426	-3.320114	1.717220	0.689298	3.460474	1.493040	0.792445	0.056993	0.	0.	0.	1.029232	4.634364	-0.136955	0.180116	-2.352367	-3.892508	-2.886562	1.566556	-4.949081	0.	0.	0.	0.000000	-0.000001	-0.000001	0.320794	5.656226	-2.365569	0.916271	4.495533	2.571629	-0.578767	-5.747636	-3.537094	-2.972521	-1.069351	10.760199	12.124707	-2.356286	-23.980337	-0.349567	3.908259	0.762537	-0.710049	-8.638212	2.200410	-1.442496	4.001956	1.894100	-5.390440	-0.605680	16.898792	1.135841	0.174128	-2.332812	-1.950867	-6.867935	1.303521	
-0.305765	100.408782	-0.603329	1.419392	-3.177796	3.488072	-2.620296	3.546550	-3.363230	1.764734	0.741685	3.347002	1.451023	0.789469	-0.073303	0.	0.	0.	0.970181	4.644403	-0.203002	0.185232	-2.413491	-4.064789	-2.917796	1.561636	-4.998421	0.	0.	0.	0.000000	-0.000001	0.000000	0.262218	5.601337	-2.455302	0.895346	4.481829	2.676981	-0.572518	-5.764448	-3.446872	-2.953124	-0.935129	10.890106	11.681413	-2.184432	-23.719698	-0.359339	3.887629	0.899324	-0.743624	-8.632092	2.178813	-1.453327	4.004888	1.936329	-5.344733	-0.539226	16.786547	1.151766	0.175478	-2.475375	-1.952832	-6.809330	1.088399	
-0.312321	100.420836	-0.607238	1.487011	-3.144079	3.669399	-2.695491	3.488539	-3.383460	1.793742	0.771390	3.283964	1.421190	0.796589	-0.161979	0.	0.	0.	0.909617	4.653849	-0.263909	0.188794	-2.455704	-4.163380	-2.933882	1.561615	-5.007322	0.	0.	0.	-0.000001	-0.000001	0.000001	0.201766	5.563215	-2.439602	0.879972	4.467206	2.679470	-0.559269	-5.769214	-3.369467	-2.929103	-0.847662	10.986730	11.387646	-2.054006	-23.513166	-0.360657	3.875501	0.924039	-0.762848	-8.617932	2.130730	-1.469359	4.030500	1.920027	-5.297313	-0.500897	16.791109	1.167011	0.176673	-2.598098	-1.959127	-6.767811	0.918529	
-0.312321	100.420836	-0.607238	1.487011	-3.144079	3.669399	-2.695491	3.488539	-3.383460	1.793742	0.771390	3.283964	1.421190	0.796589	-0.161979	0.	0.	0.	0.909617	4.653849	-0.263909	0.188794	-2.455704	-4.163380	-2.933882	1.561615	-5.007322	0.	0.	0.	-0.000001	-0.000001	0.000001	0.201766	5.563215	-2.439602	0.879972	4.467206	2.679470	-0.559269	-5.769214	-3.369467	-2.929103	-0.847662	10.986730	11.387646	-2.054006	-23.513166	-0.360657	3.875501	0.924039	-0.762848	-8.617932	2.130730	-1.469359	4.030500	1.920027	-5.297313	-0.500897	16.791109	1.167011	0.176673	-2.598098	-1.959127	-6.767811	0.918529	
